<?xml version="1.0" encoding="utf-8"?>
<!-- Generator: Adobe Illustrator 19.1.0, SVG Export Plug-In . SVG Version: 6.00 Build 0)  -->
<!DOCTYPE svg PUBLIC "-//W3C//DTD SVG 1.1//EN" "http://www.w3.org/Graphics/SVG/1.1/DTD/svg11.dtd">
<svg version="1.1" id="Calque_3" xmlns="http://www.w3.org/2000/svg" xmlns:xlink="http://www.w3.org/1999/xlink" x="0px" y="0px"
	 viewBox="0 0 279.8 49.2" enable-background="new 0 0 279.8 49.2" xml:space="preserve" width="280" height="50">
<g>
	<path fill="#333333" d="M80.5,38.4c-7.1,0-12.3-5.2-12.3-13.3c0-8,5.6-13.7,13.4-13.7c7.1,0,12.3,5.2,12.3,13.3
		C93.9,32.8,88.3,38.4,80.5,38.4z M80.8,14.5c-5.1,0-8.9,4.1-8.9,9.9c0,7.1,4.1,10.9,9.3,10.9c5.1,0,8.9-4.1,8.9-9.9
		C90.1,18.3,86,14.5,80.8,14.5z"/>
	<path fill="#333333" d="M124.9,37.9l-0.9-17.7c0-0.5,0-3.4,0-3.4s-0.7,2.3-1.1,3.4l-8.2,17.7h-2.1l-8.2-17.6
		c-0.5-1.1-1.2-3.6-1.2-3.6s0.1,3.2,0,3.8l-0.9,17.5h-3.6l2-26.1h3.5l8.4,17.6c0.7,1.5,1.3,3.8,1.3,3.8s0.6-2.3,1.3-3.7l8.2-17.6
		h3.5l1.6,26.1H124.9z"/>
	<path fill="#333333" d="M154.6,37.9l-14.7-19.2c-0.7-1-1.4-2.6-1.4-2.6s0.3,1.8,0.3,3.4l0.2,18.4h-3.5V11.9h3.5l14.6,18.9
		c0.7,1,1.5,2.6,1.5,2.6s-0.3-1.9-0.3-3.6l-0.2-17.9h3.4v26.1H154.6z"/>
	<path fill="#333333" d="M165.7,37.9V11.9h3.6v26.1H165.7z"/>
	<path fill="#333333" d="M202.4,37.9l-0.9-17.7c0-0.5,0-3.4,0-3.4s-0.7,2.3-1.1,3.4l-8.2,17.7h-2.1l-8.2-17.6
		c-0.5-1.1-1.2-3.6-1.2-3.6s0.1,3.2,0,3.8l-0.9,17.5h-3.6l2-26.1h3.5l8.4,17.6c0.7,1.5,1.3,3.8,1.3,3.8s0.6-2.3,1.3-3.7l8.2-17.6
		h3.5l1.6,26.1H202.4z"/>
	<path fill="#333333" d="M228.9,37.9l-3-8.1h-9.6l-2.8,8.1h-3.7l9.9-26.1h3.3l9.9,26.1H228.9z M221.7,18.5c-0.3-0.9-0.7-2.9-0.7-2.9
		s-0.3,2-0.7,2.9l-3.1,8.4h7.6L221.7,18.5z"/>
	<path fill="#333333" d="M237.2,37.9V11.9h3.6v26.1H237.2z"/>
	<path fill="#333333" d="M248.5,37.9V11.9h3.6v22.8H263v3.3H248.5z"/>
</g>
<rect x="0" fill="#A800FF" width="49.2" height="49.2"/>
<polygon fill="#FFFFFF" points="24.9,29.4 19,24.6 7.1,38.7 42.8,38.7 30.9,24.4 "/>
<polygon fill="#FFFFFF" points="44.9,37.8 44.9,12.5 32.5,23 "/>
<polygon fill="#FFFFFF" points="5.9,10.5 24.9,26.5 44,10.5 "/>
<polygon fill="#FFFFFF" points="4.9,12.5 4.9,37.8 17.3,23 "/>
</svg>
